<?xml version="1.0" encoding="UTF-8"?>
<svg width="900" height="600" version="1.1" viewBox="0 0 22.5 15" xmlns="http://www.w3.org/2000/svg" xmlns:xlink="http://www.w3.org/1999/xlink">
 <clipPath id="d">
  <rect width="20" height="10"/>
 </clipPath>
 <g transform="scale(1.125,1.5)" clip-path="url(#d)">
  <rect width="10" height="10" fill="#000000"/>
  <path d="m0 3h20m-20 4h20" stroke="#fff" stroke-width="1.5396"/>
  <g fill="#454444">
   <path transform="matrix(.86603 .5 -.5 .86603 0 0)" d="m0 0h10l-10 7"/>
   <path transform="matrix(.86603 -.5 .5 .86603 -5 1.3397)" d="m0 10h10l-10-6"/>
  </g>
  <comment>the star is in the center of gravity of the triangle, so the x-pos is irrational (5 / sin30 * sin60)</comment>
  <g transform="matrix(1.5 0 0 1.5 2.8868 5)" fill="#fff">
   <g id="b">
    <polygon id="c" transform="matrix(.95106 .30902 -.30902 .95106 0 -1)" points="0.5 1 0 0 0 1"/>
    <use transform="scale(-1,1)" width="20" height="10" xlink:href="#c"/>
   </g>
   <use transform="matrix(.30902 .95106 -.95106 .30902 0 0)" width="20" height="10" xlink:href="#b"/>
   <use transform="matrix(.30902 -.95106 .95106 .30902 0 0)" width="20" height="10" xlink:href="#b"/>
   <use transform="matrix(-.80902 .58779 -.58779 -.80902 0 0)" width="20" height="10" xlink:href="#b"/>
   <use transform="matrix(-.80902 -.58779 .58779 -.80902 0 0)" width="20" height="10" xlink:href="#b"/>
  </g>
 </g>
</svg>
