<?xml version="1.0" encoding="UTF-8"?>
<svg width="159.92" height="106.85" fill-rule="evenodd" image-rendering="optimizeQuality" shape-rendering="geometricPrecision" text-rendering="geometricPrecision" viewBox="0 0 6.46216 4.31765" xmlns="http://www.w3.org/2000/svg">
 <path d="m.57375.01432h5.31465a.55944,.55944 0 0,1 .55944.55944v3.17014a.55944,.55944 0 0,1 -.55944.55944h-5.31465a.55944,.55944 0 0,1 -.55944-.55944v-3.17014a.55944,.55944 0 0,1 .55944-.55944" fill="#000000" stroke="#fff" stroke-width=".02864"/>
 <path d="m.55279.38195h2.04892a.18648,.18648 0 0,1 .18648.18648v2.4594a.18648,.18648 0 0,1 -.18648.18648h-2.04892a.18648,.18648 0 0,1 -.18648-.18648v-2.4594a.18648,.18648 0 0,1 .18648-.18648" fill="#fff" stroke="#fff" stroke-width=".02864"/>
 <path d="m2.2754 1.2031a0.67599 0.67599 0 1 0 -1.352 0 0.67599 0.67599 0 1 0 1.352 0" fill="#1f1a17" stroke="#1f1a17" stroke-width=".02864"/>
 <path d="m.50382,3.23108h2.16782v-.54778c0-.30128-.2465-.54778-.54778-.54778h-1.07225c-.30128,0-.54778.2465-.54778.54778v.54778z" fill="#1f1a17" stroke="#1f1a17" stroke-width=".02864"/>
 <path d="m3.44536.88526h2.40091a.13986,.13986 0 0,1 .13986.13986 .13986,.13986 0 0,1 -.13986.13986h-2.40091a.13986,.13986 0 0,1 -.13986-.13986 .13986,.13986 0 0,1 .13986-.13986" fill="#fff" stroke="#fff" stroke-width=".02864"/>
 <path d="m3.44536,2.31707h2.40091a.13986,.13986 0 0,1 .13986.13986 .13986,.13986 0 0,1 -.13986.13986h-2.40091a.13986,.13986 0 0,1 -.13986-.13986 .13986,.13986 0 0,1 .13986-.13986" fill="#fff" stroke="#fff" stroke-width=".02864"/>
 <path d="m3.44536,1.60113h2.40091a.13986,.13986 0 0,1 .13986.13986 .13986,.13986 0 0,1 -.13986.13986h-2.40091a.13986,.13986 0 0,1 -.13986-.13986 .13986,.13986 0 0,1 .13986-.13986" fill="#fff" stroke="#fff" stroke-width=".02864"/>
</svg>
