<?xml version="1.0" encoding="UTF-8"?>
<svg viewBox="0 0 2000 2000" xmlns="http://www.w3.org/2000/svg">
 <g stroke-width="14">
  <g fill="none" stroke="#000" stroke-dashoffset="3.003" stroke-linecap="round" stroke-linejoin="round">
   <path d="m800.26 364.85l80.026 185.13 102.25-219.57"/>
   <path d="m803.92 350.15l-157.76 208.51 29.613-176.59"/>
   <path d="m986.98 339.01l177.44 159.3-35.411-179.36"/>
   <path d="m512.43 566.79c61.475 60.794 439 373.19 439 373.19l-185.98-378.79-253.02 5.601z"/>
   <path d="m953.8 937.38l76.304-403.86-279.32 29.478 203.01 374.38z"/>
   <path d="m508.93 563.69l158.86-185 142.08-31.949-57.95 213.59-242.99 3.363z"/>
   <path d="m978.78 326.14l148.42-11.385 156.64 148.38-254.49 67.318-50.564-204.31z"/>
   <path d="m809.74 346.76l172.1-21.504 49.266 208.26-276.87 29.178 55.51-215.94z"/>
   <path d="m953.8 937.38l330.49-473.55-254.18 69.686-76.304 403.86z"/>
  </g>
  <path d="m1214.5 667.01l152.13 61.588" fill="#fff"/>
  <g fill="none" stroke="#000">
   <g stroke-dashoffset="3.003" stroke-linecap="round" stroke-linejoin="round">
    <path d="m808.57 346.74l71.716 203.23 102.25-219.57"/>
    <path d="m1162.8 497.59l-201.35 429.6"/>
    <path d="m882.53 547.62l73.091 379.56-14.185-9.3685"/>
    <path d="m623.64 563.02l321.09 364.85"/>
   </g>
   <ellipse cx="1023.4" cy="1438.4" rx="465.49" ry="425.61"/>
   <ellipse cx="1026.9" cy="1439.9" rx="561.55" ry="484.29"/>
  </g>
 </g>
</svg>
